<?xml version="1.0" ?><svg viewBox="0 0 32 32" xmlns="http://www.w3.org/2000/svg"><defs><style>.cls-1{fill:#d8e1ef;}.cls-2{fill:#0593ff;}.cls-3{fill:#0e6ae0;}</style></defs><title/><g data-name="Browser Samar" id="Browser_Samar"><rect class="cls-1" height="24" rx="4" ry="4" width="28" x="2" y="4"/><path class="cls-2" d="M30,8v2H2V8A4,4,0,0,1,6,4H26A4,4,0,0,1,30,8Z"/><circle class="cls-3" cx="13" cy="7" r="1"/><circle class="cls-3" cx="10" cy="7" r="1"/><circle class="cls-3" cx="7" cy="7" r="1"/><path class="cls-3" d="M18,23H14a1,1,0,0,1,0-2h4a1,1,0,0,1,0,2Z"/><path class="cls-2" d="M20,16.68l-1-3A1,1,0,0,0,18,13H14a1,1,0,0,0-.95.68l-1,3a1,1,0,0,0,.14.9A1,1,0,0,0,13,18h6a1,1,0,0,0,.81-.42A1,1,0,0,0,20,16.68Z"/><path class="cls-3" d="M21,18H11a1,1,0,0,1,0-2H21a1,1,0,0,1,0,2Z"/><circle class="cls-2" cx="12" cy="22" r="3"/><circle class="cls-2" cx="20" cy="22" r="3"/></g></svg>